<svg xmlns="http://www.w3.org/2000/svg" width="1024" height="1024" fill="none" viewBox="0 0 1024 1024">
  <style>
    .dark-mode {
      display: none;
    }
    @media (prefers-color-scheme: dark) {
      .light-mode {
        display: none;
      }
      .dark-mode {
        display: block;
      }
    }
  </style>
  
  <!-- Light Mode SVG -->
  <g class="light-mode">
    <rect width="1024" height="1024" fill="#fff" rx="512"/>
    <path stroke="#000" stroke-linecap="square" stroke-width="35.31" d="M362.847 632.88h280.938v0c53.962 0 97.706-10.88 97.715-64.842l.002-12.559v0c.014-78.486-63.612-84.597-142.098-84.597H362.847m0 161.998v108.637m0-108.637h-31.506m31.506 0v-38.901m0-123.097v0c-33.73 0-61.073-27.343-61.073-61.073v-22.328 0c0-57.989 8.299-104.999 66.288-104.999h190.333c45.119 0 60.96 36.577 60.96 81.696v0M362.847 470.882v30.955"/>
  </g>

  <!-- Dark Mode SVG -->
  <g class="dark-mode">
    <rect width="1024" height="1024" fill="#000" rx="512"/>
    <path stroke="#fff" stroke-linecap="square" stroke-width="35.31" d="M362.847 632.88h280.938v0c53.962 0 97.706-10.88 97.715-64.842l.002-12.559v0c.014-78.486-63.612-84.597-142.098-84.597H362.847m0 161.998v108.637m0-108.637h-31.506m31.506 0v-38.901m0-123.097v0c-33.73 0-61.073-27.343-61.073-61.073v-22.328 0c0-57.989 8.299-104.999 66.288-104.999h190.333c45.119 0 60.96 36.577 60.96 81.696v0M362.847 470.882v30.955"/>
  </g>
</svg>
